<svg xmlns="http://www.w3.org/2000/svg" width="21" height="21" viewBox="0 0 21 21">
    <path d="M5.727 17.182c1.055 0 1.91.855 1.91 1.909S6.781 21 5.726 21c-1.054 0-1.909-.855-1.909-1.91 0-1.053.855-1.908 1.91-1.908zm11.455 0c1.054 0 1.909.855 1.909 1.909S18.236 21 17.18 21c-1.054 0-1.908-.855-1.908-1.91 0-1.053.854-1.908 1.909-1.908zM2.386 0c.42 0 .791.275.913.676l.385 1.264c.044-.013.087-.03.134-.03h15.645c.849 0 1.537.687 1.537 1.536v.135c0 .225-.05.45-.146.654l-3.33 7.077c-.315.67-.989 1.097-1.728 1.097h-9.25c-.028.05-.056.1-.094.144l-1.513 1.765h13.675c.263 0 .477.214.477.477v.955c0 .264-.214.477-.477.477H4.939c-.84 0-1.568-.527-1.827-1.353-.203-.645-.005-1.353.436-1.866l1.113-1.3L1.68 1.91H.477C.214 1.91 0 1.695 0 1.432V.477C0 .214.214 0 .477 0z"/>
</svg>
