<svg xmlns="http://www.w3.org/2000/svg" width="14" height="14" viewBox="0 0 14 14">
    <path fill="#036DE5" fill-rule="evenodd" d="M3.49 8c.827 0 1.16.093 1.487.267.326.174.582.43.756.756.174.326.267.66.267 1.486v.982c0 .826-.093 1.16-.267 1.486-.174.326-.43.582-.756.756-.326.174-.66.267-1.486.267h-.982c-.826 0-1.16-.093-1.486-.267-.326-.174-.582-.43-.756-.756C.093 12.65 0 12.317 0 11.49v-.982c0-.826.093-1.16.267-1.486.174-.326.43-.582.756-.756C1.35 8.093 1.683 8 2.51 8h.982zm8 0c.827 0 1.16.093 1.487.267.326.174.582.43.756.756.174.326.267.66.267 1.486v.982c0 .826-.093 1.16-.267 1.486-.174.326-.43.582-.756.756-.326.174-.66.267-1.486.267h-.982c-.826 0-1.16-.093-1.486-.267-.326-.174-.582-.43-.756-.756C8.093 12.65 8 12.317 8 11.49v-.982c0-.826.093-1.16.267-1.486.174-.326.43-.582.756-.756C9.35 8.093 9.683 8 10.51 8h.982zm-8-8c.827 0 1.16.093 1.487.267.326.174.582.43.756.756.174.326.267.66.267 1.486v.982c0 .826-.093 1.16-.267 1.486-.174.326-.43.582-.756.756C4.65 5.907 4.317 6 3.49 6h-.982c-.826 0-1.16-.093-1.486-.267-.326-.174-.582-.43-.756-.756C.093 4.65 0 4.317 0 3.49v-.982c0-.826.093-1.16.267-1.486.174-.326.43-.582.756-.756C1.35.093 1.683 0 2.51 0h.982zm8 0c.827 0 1.16.093 1.487.267.326.174.582.43.756.756.174.326.267.66.267 1.486v.982c0 .826-.093 1.16-.267 1.486-.174.326-.43.582-.756.756-.326.174-.66.267-1.486.267h-.982c-.826 0-1.16-.093-1.486-.267-.326-.174-.582-.43-.756-.756C8.093 4.65 8 4.317 8 3.49v-.982c0-.826.093-1.16.267-1.486.174-.326.43-.582.756-.756C9.35.093 9.683 0 10.51 0h.982z"/>
</svg>
