<svg xmlns="http://www.w3.org/2000/svg" xmlns:xlink="http://www.w3.org/1999/xlink" width="100" height="110" viewBox="0 0 100 110">
    <defs>
        <filter id="prefix__a" width="250%" height="250%" x="-75%" y="-50%" filterUnits="objectBoundingBox">
            <feOffset dy="15" in="SourceAlpha" result="shadowOffsetOuter1"/>
            <feGaussianBlur in="shadowOffsetOuter1" result="shadowBlurOuter1" stdDeviation="12.5"/>
            <feColorMatrix in="shadowBlurOuter1" values="0 0 0 0 0 0 0 0 0 0 0 0 0 0 0 0 0 0 0.21 0"/>
        </filter>
        <path id="prefix__b" d="M27.791 0h4.418c7.128 0 11.602 1.114 15.513 3.206 3.911 2.091 6.98 5.16 9.072 9.072C58.886 16.189 60 20.663 60 27.79v4.418c0 7.128-1.114 11.602-3.206 15.513-2.091 3.911-5.16 6.98-9.072 9.072C43.811 58.886 39.337 60 32.21 60H27.79c-7.128 0-11.602-1.114-15.513-3.206-3.911-2.091-6.98-5.16-9.072-9.072C1.114 43.811 0 39.337 0 32.21V27.79c0-7.128 1.114-11.602 3.206-15.513 2.091-3.911 5.16-6.98 9.072-9.072C16.189 1.114 20.663 0 27.79 0z"/>
    </defs>
    <g fill="none" fill-rule="evenodd" transform="translate(25 10)">
        <use fill="#000" filter="url(#prefix__a)" xlink:href="#prefix__b"/>
        <use fill="#174AD5" xlink:href="#prefix__b"/>
        <g stroke="#FFF" stroke-linecap="round" stroke-width="3">
            <path d="M0 14l6.293-6.293c.39-.39.39-1.024 0-1.414L0 0h0" transform="translate(27 23)"/>
        </g>
    </g>
</svg>
