<?xml version="1.0" encoding="UTF-8"?>
<svg width="100px" height="110px" viewBox="0 0 100 110" version="1.1" xmlns="http://www.w3.org/2000/svg" xmlns:xlink="http://www.w3.org/1999/xlink">
    <title>Group 6</title>
    <defs>
        <path d="M27.7914172,-6.96472048e-16 L32.2085828,6.96472048e-16 C39.3365614,-6.12916394e-16 43.8110373,1.11390733 47.7221484,3.20559245 C51.6332596,5.29727756 54.7027224,8.36674045 56.7944076,12.2778516 C58.8860927,16.1889627 60,20.6634386 60,27.7914172 L60,32.2085828 C60,39.3365614 58.8860927,43.8110373 56.7944076,47.7221484 C54.7027224,51.6332596 51.6332596,54.7027224 47.7221484,56.7944076 C43.8110373,58.8860927 39.3365614,60 32.2085828,60 L27.7914172,60 C20.6634386,60 16.1889627,58.8860927 12.2778516,56.7944076 C8.36674045,54.7027224 5.29727756,51.6332596 3.20559245,47.7221484 C1.11390733,43.8110373 4.0861093e-16,39.3365614 -4.64314699e-16,32.2085828 L4.64314699e-16,27.7914172 C-4.0861093e-16,20.6634386 1.11390733,16.1889627 3.20559245,12.2778516 C5.29727756,8.36674045 8.36674045,5.29727756 12.2778516,3.20559245 C16.1889627,1.11390733 20.6634386,6.12916394e-16 27.7914172,-6.96472048e-16 Z" id="path-1"></path>
        <filter x="-75.0%" y="-50.0%" width="250.0%" height="250.0%" filterUnits="objectBoundingBox" id="filter-2">
            <feOffset dx="0" dy="15" in="SourceAlpha" result="shadowOffsetOuter1"></feOffset>
            <feGaussianBlur stdDeviation="12.5" in="shadowOffsetOuter1" result="shadowBlurOuter1"></feGaussianBlur>
            <feColorMatrix values="0 0 0 0 0   0 0 0 0 0   0 0 0 0 0  0 0 0 0.21 0" type="matrix" in="shadowBlurOuter1"></feColorMatrix>
        </filter>
    </defs>
    <g id="Товар-1200" stroke="none" stroke-width="1" fill="none" fill-rule="evenodd">
        <g id="Геотест-товар" transform="translate(-1100.000000, -566.000000)">
            <g id="Group-6" transform="translate(1155.000000, 606.000000) scale(-1, 1) translate(-1155.000000, -606.000000) translate(1125.000000, 576.000000)">
                <g id="Rectangle">
                    <use fill="black" fill-opacity="1" filter="url(#filter-2)" xlink:href="#path-1"></use>
                    <use fill="#174AD5" fill-rule="evenodd" xlink:href="#path-1"></use>
                </g>
                <g id="Group-5" transform="translate(27.000000, 23.000000)" stroke="#FFFFFF" stroke-linecap="round" stroke-width="3">
                    <g id="Group">
                        <path d="M7,14 L0.707106781,7.70710678 C0.316582489,7.31658249 0.316582489,6.68341751 0.707106781,6.29289322 L7,0 L7,0" id="Path" transform="translate(3.500000, 7.000000) scale(-1, 1) translate(-3.500000, -7.000000) "></path>
                    </g>
                </g>
            </g>
        </g>
    </g>
</svg>