<svg xmlns="http://www.w3.org/2000/svg" width="65" height="61" viewBox="0 0 65 61">
    <g fill="none">
        <path fill="#000" stroke="#000" d="M10.55 24.722h13.716c.583 0 1.055-.472 1.055-1.054 0-.581-.472-1.053-1.055-1.053H10.55c-.583 0-1.055.472-1.055 1.053 0 .582.472 1.054 1.055 1.054zM37.981 28.936h-27.43c-.584 0-1.056.472-1.056 1.054 0 .581.472 1.053 1.055 1.053h27.431c.584 0 1.055-.472 1.055-1.053 0-.582-.471-1.054-1.055-1.054zM37.981 35.258h-27.43c-.584 0-1.056.472-1.056 1.053 0 .582.472 1.054 1.055 1.054h27.431c.584 0 1.055-.472 1.055-1.054 0-.581-.471-1.053-1.055-1.053z" transform="translate(1 1)"/>
        <path fill="#036DE5" stroke="#036DE5" d="M57.048.564L21.027.49c-3.45 0-6.257 2.802-6.257 6.248v5.398l-8.514.018C2.806 12.154 0 14.957 0 18.402v22.273c0 3.445 2.806 6.247 6.256 6.247h6.404v10.536c0 .435.268.826.676.983.123.047.252.07.38.07.29 0 .577-.121.78-.344L24.734 46.92l17.541-.072c3.45 0 6.257-2.802 6.257-6.247v-.119l5.55 6.096c.203.224.489.345.78.345.127 0 .256-.023.38-.07.407-.158.675-.549.675-.984V35.334h1.129c3.45 0 6.256-2.803 6.256-6.247V6.811c0-3.444-2.805-6.246-6.254-6.247zM46.422 40.6c0 2.284-1.86 4.14-4.151 4.14l-18.01.074c-.295 0-.578.126-.776.344l-8.715 9.574v-8.865c0-.581-.471-1.053-1.055-1.053H6.256c-2.286 0-4.146-1.858-4.146-4.14V18.401c0-2.283 1.86-4.14 4.148-4.14l9.568-.02s0 0 0 0h.002l26.447-.056c2.287 0 4.147 1.858 4.147 4.14V40.6zm14.77-11.515c0 2.283-1.86 4.14-4.146 4.14h-2.184c-.584 0-1.055.471-1.055 1.053v8.865l-5.275-5.795V18.327c0-3.445-2.807-6.248-6.259-6.248l-25.392.052V6.737c0-2.284 1.86-4.141 4.144-4.141l36.02.074h.002c2.286 0 4.146 1.857 4.146 4.14v22.275h-.001z" transform="translate(1 1)"/>
    </g>
</svg>
