<svg xmlns="http://www.w3.org/2000/svg" width="24" height="18" viewBox="0 0 24 18">
    <path fill-rule="evenodd" d="M11.503 0c4.27 0 8.119 1.76 9.189 2.39v3.72c-.305-.372-2.349-1.698-6.035-1.698-2.643 0-4.695 1.865-4.695 4.385 0 2.52 2.006 4.735 5.145 4.735 3.14 0 5.754-1.744 5.754-1.744v3.803S16.803 18 11.46 18C5.258 18 0 14.731 0 8.575 0 5.51 1.752 2.88 4.255 1.514 6.302.395 8.913 0 11.503 0zM5.511 3.95c-2.09 0-3.122 1.588-3.122 2.76v5.4c0 .628.141.96.648 1.394.507.433 1.105.471 1.105.471V7.07c0-1.182 1.116-1.393 1.537-1.393.226 0 1.556.11 1.556 1.449 0 1.338-1.256 1.476-1.481 1.476-.225 0-.694-.138-.694-.138v1.754s.338.027.637.027c2.57 0 3.29-1.993 3.29-3.008 0-1.016-.703-3.286-3.476-3.286zM24 6.739v1.754h-1.527v2.603h-3.224V8.464h-1.612V6.738H24z" opacity=".2"/>
</svg>
