<svg xmlns="http://www.w3.org/2000/svg" width="60" height="60" viewBox="0 0 60 60">
    <path fill="#00A120" d="M29.77 0c16.414 0 29.768 13.499 29.768 30.09C59.538 46.584 46.184 60 29.77 60S0 46.583 0 30.09C0 13.5 13.354 0 29.77 0zm0 5.438c-13.431 0-24.357 11.06-24.357 24.653 0 13.493 10.926 24.47 24.356 24.47 13.43 0 24.357-10.977 24.357-24.47 0-13.594-10.927-24.653-24.357-24.653zm9.882 16.125c1.065-1.058 2.792-1.058 3.857 0 1.065 1.057 1.065 2.772 0 3.83l-14.517 14.89c-.533.53-1.23.794-1.929.794-.698 0-1.396-.264-1.928-.793l-7.26-6.741c-1.064-1.058-1.064-2.773 0-3.83 1.066-1.058 2.793-1.058 3.858 0l5.33 4.825z"/>
</svg>
