<?xml version="1.0" encoding="UTF-8"?>
<svg width="14px" height="18px" viewBox="0 0 14 18" version="1.1" xmlns="http://www.w3.org/2000/svg" xmlns:xlink="http://www.w3.org/1999/xlink">
    <title>Combined Shape</title>
    <g id="Заказ-1200" stroke="none" stroke-width="1" fill="none" fill-rule="evenodd">
        <g id="Заказ-2" transform="translate(-424.000000, -463.000000)" fill="#036DE5" fill-rule="nonzero">
            <path d="M435.982747,469.346821 C436.197745,469.346821 436.397045,469.429642 436.543765,469.58004 C436.690538,469.730387 436.765894,469.928803 436.755836,470.138769 L436.755836,470.138769 L436.273367,480.232347 C436.253145,480.655607 435.884029,481 435.450573,481 L435.450573,481 L425.818225,481 C425.38477,481 425.015654,480.655607 424.995431,480.232295 L424.995431,480.232295 L424.512962,470.138717 C424.502904,469.928803 424.578207,469.730387 424.725034,469.579988 C424.871807,469.429642 425.071053,469.346821 425.286051,469.346821 L425.286051,469.346821 Z M427.565565,471.427746 C427.124712,471.427746 426.767304,471.777133 426.767304,472.208092 L426.767304,472.208092 L426.767304,477.878613 C426.767304,478.309572 427.124712,478.65896 427.565565,478.65896 C428.006418,478.65896 428.363826,478.309572 428.363826,477.878613 L428.363826,477.878613 L428.363826,472.208092 C428.363826,471.777133 428.006418,471.427746 427.565565,471.427746 Z M430.652174,471.427746 C430.211321,471.427746 429.853913,471.777133 429.853913,472.208092 L429.853913,472.208092 L429.853913,477.878613 C429.853913,478.309572 430.211321,478.65896 430.652174,478.65896 C431.093027,478.65896 431.450435,478.309572 431.450435,477.878613 L431.450435,477.878613 L431.450435,472.208092 C431.450435,471.777133 431.093027,471.427746 430.652174,471.427746 Z M433.738783,471.427746 C433.29793,471.427746 432.940522,471.777133 432.940522,472.208092 L432.940522,472.208092 L432.940522,477.878613 C432.940522,478.309572 433.29793,478.65896 433.738783,478.65896 C434.179635,478.65896 434.537043,478.309572 434.537043,477.878613 L434.537043,477.878613 L434.537043,472.208092 C434.537043,471.777133 434.179635,471.427746 433.738783,471.427746 Z M431.822957,463 C433.119066,463 434.182562,463.99 434.265156,465.236994 L434.265156,465.236994 L436.506087,465.236994 C436.946248,465.236994 437.304348,465.587058 437.304348,466.017341 L437.304348,466.017341 L437.304348,467.057803 C437.304348,467.488087 436.946248,467.83815 436.506087,467.83815 L436.506087,467.83815 L424.798261,467.83815 C424.3581,467.83815 424,467.488087 424,467.057803 L424,467.057803 L424,466.017341 C424,465.587058 424.3581,465.236994 424.798261,465.236994 L424.798261,465.236994 L427.039139,465.236994 C427.121785,463.99 428.185282,463 429.481391,463 L429.481391,463 Z M431.822957,464.560694 L429.481391,464.560694 C429.066509,464.560694 428.720436,464.852439 428.645453,465.236994 L428.645453,465.236994 L432.658895,465.236994 C432.583912,464.852439 432.237839,464.560694 431.822957,464.560694 L431.822957,464.560694 Z" id="Combined-Shape"></path>
        </g>
    </g>
</svg>