<svg xmlns="http://www.w3.org/2000/svg" width="10" height="9" viewBox="0 0 10 9">
    <path d="M9.983 4.966C9.806 3.18 8.2 1.876 6.406 1.876H3.75V.312c0-.12-.069-.23-.177-.282-.109-.052-.237-.038-.33.037l-3.126 2.5c-.074.06-.117.15-.117.245s.043.184.117.244l3.125 2.5c.057.045.126.068.195.068.047 0 .093-.01.136-.03.108-.053.177-.162.177-.282V3.75h2.722c.818 0 1.563.588 1.645 1.4.094.936-.639 1.725-1.555 1.725h-2.5c-.172 0-.312.14-.312.313v1.25c0 .172.14.312.312.312h2.5c2.008 0 3.623-1.735 3.42-3.784z" opacity=".3"/>
</svg>
