<svg xmlns="http://www.w3.org/2000/svg" width="24" height="24" viewBox="0 0 24 24">
    <path fill="#006CE5" d="M12.003 0h-.006C5.38 0 0 5.382 0 12c0 2.625.846 5.058 2.284 7.034L.79 23.49l4.613-1.474C7.299 23.274 9.562 24 12.003 24 18.619 24 24 18.616 24 12c0-6.617-5.38-12-11.997-12zm7.134 16.73c-.282.798-1.401 1.46-2.294 1.653-.611.13-1.41.235-4.095-.882-3.436-1.427-5.649-4.927-5.821-5.154-.165-.227-1.389-1.853-1.389-3.535 0-1.682.852-2.501 1.196-2.853.282-.289.748-.42 1.195-.42.145 0 .275.007.392.013.343.014.516.035.742.578.283.682.97 2.364 1.051 2.537.084.172.167.407.05.634-.11.234-.206.338-.379.538-.172.199-.336.351-.508.565-.158.186-.336.386-.138.73.2.337.886 1.46 1.897 2.363 1.305 1.165 2.364 1.537 2.742 1.695.282.118.618.09.824-.13.262-.283.585-.752.914-1.213.234-.331.529-.372.839-.255.315.11 1.986.938 2.33 1.109.343.173.569.255.652.4.082.145.082.826-.2 1.626z"/>
</svg>
